HIERARCHY
ROOT root
{
	OFFSET	0	13.1	24.9
	CHANNELS 6  Xposition Yposition Zposition Xrotation Yrotation Zrotation
	JOINT spine_1
	{
		OFFSET	0	9.99999	0
		CHANNELS 3  Xrotation Yrotation Zrotation
		JOINT spine_2
		{
			OFFSET	0	112	-10
			CHANNELS 3  Xrotation Yrotation Zrotation
			JOINT spine_3
			{
				OFFSET	0	206.5	19.3
				CHANNELS 3  Xrotation Yrotation Zrotation
				JOINT spine_4
				{
					OFFSET	0	110.4	14.6
					CHANNELS 3  Xrotation Yrotation Zrotation
					JOINT neck_1
					{
						OFFSET	0	71.8	-50.3
						CHANNELS 3  Xrotation Yrotation Zrotation
						JOINT neck_2
						{
							OFFSET	0	86.2	-25.8
							CHANNELS 3  Xrotation Yrotation Zrotation
							JOINT head_ee
							{
								OFFSET	0	179.8	-8.7
								CHANNELS 3  Xrotation Yrotation Zrotation
								End Site
								{
									OFFSET	1	0	0
								}
							}
						}
					}
					JOINT left_clavicle
					{
						OFFSET	-43.2	22.4	-70.8
						CHANNELS 3  Xrotation Yrotation Zrotation
						JOINT left_shoulder
						{
							OFFSET	-93.9	-5.79999	48.7
							CHANNELS 3  Xrotation Yrotation Zrotation
							JOINT left_elbow
							{
								OFFSET	-291.4	-30.8	15.2
								CHANNELS 3  Xrotation Yrotation Zrotation
								JOINT left_lowarm_twist
								{
									OFFSET	-110.7	-3.89999	13.6
									CHANNELS 3  Xrotation Yrotation Zrotation
									JOINT left_hand
									{
										OFFSET	-110.7	-3.89999	13.6
										CHANNELS 3  Xrotation Yrotation Zrotation
										JOINT left_ee
										{
											OFFSET	-80.8	-5.10001	12.1
											CHANNELS 3  Xrotation Yrotation Zrotation
											End Site
											{
												OFFSET	1	0	0
											}
										}
									}
								}
							}
						}
					}
					JOINT right_clavicle
					{
						OFFSET	43.2	22.4	-70.8
						CHANNELS 3  Xrotation Yrotation Zrotation
						JOINT right_shoulder
						{
							OFFSET	93.9	-5.79999	48.7
							CHANNELS 3  Xrotation Yrotation Zrotation
							JOINT right_elbow
							{
								OFFSET	291.4	-30.8	15.2
								CHANNELS 3  Xrotation Yrotation Zrotation
								JOINT right_lowarm_twist
								{
									OFFSET	110.7	-3.89999	13.6
									CHANNELS 3  Xrotation Yrotation Zrotation
									JOINT right_hand
									{
										OFFSET	110.7	-3.89999	13.6
										CHANNELS 3  Xrotation Yrotation Zrotation
										JOINT right_ee
										{
											OFFSET	80.8	-5.10001	12.1
											CHANNELS 3  Xrotation Yrotation Zrotation
											End Site
											{
												OFFSET	1	0	0
											}
										}
									}
								}
							}
						}
					}
				}
			}
		}
	}
	JOINT left_hip
	{
		OFFSET	-82.8	-127.5	0.300001
		CHANNELS 3  Xrotation Yrotation Zrotation
		JOINT left_knee
		{
			OFFSET	-28.2	-396.7	2.2
			CHANNELS 3  Xrotation Yrotation Zrotation
			JOINT left_ankle
			{
				OFFSET	-11.7	-411.3	35.4
				CHANNELS 3  Xrotation Yrotation Zrotation
				JOINT left_toes
				{
					OFFSET	0	-60	-88.6
					CHANNELS 3  Xrotation Yrotation Zrotation
					JOINT left_foot_ee
					{
						OFFSET	-22.5	-16.5	-42.2
						CHANNELS 3  Xrotation Yrotation Zrotation
						End Site
						{
							OFFSET	1	0	0
						}
					}
				}
			}
		}
	}
	JOINT right_hip
	{
		OFFSET	82.8	-127.5	0.300001
		CHANNELS 3  Xrotation Yrotation Zrotation
		JOINT right_knee
		{
			OFFSET	28.2	-396.7	2.2
			CHANNELS 3  Xrotation Yrotation Zrotation
			JOINT right_ankle
			{
				OFFSET	11.7	-411.3	35.4
				CHANNELS 3  Xrotation Yrotation Zrotation
				JOINT right_toes
				{
					OFFSET	0	-60	-88.6
					CHANNELS 3  Xrotation Yrotation Zrotation
					JOINT right_foot_ee
					{
						OFFSET	22.5	-16.5	-42.2
						CHANNELS 3  Xrotation Yrotation Zrotation
						End Site
						{
							OFFSET	1	0	0
						}
					}
				}
			}
		}
	}
}
MOTION
Frames: 8
Frame Time: 0.02
3758.03 743.161 -711.865 -8.19563 28.3668 3.90784 3.06343 0.14923 0.30873 3.06348 0.129283 0.3176 3.06418 0.0776098 0.334006 3.06405 0.129386 0.317558 -13.2131 -7.06321 4.9817 -13.3261 -16.5424 2.60361 -0.0 0.0 -0.0 -3.2396 22.9372 -1.83307 -18.5948 -17.2571 71.0147 1.26993 -32.172 0.366224 -9.15744 -0.411171 1.09493 -2.74503 8.94862 -14.123 -0.0 0.0 -0.0 7.21272 15.9093 -13.5357 -8.99621 21.268 -65.4111 0.518482 14.4047 -0.0655216 -0.948636 0.034389 -0.116264 1.2586 -7.73271 -11.4615 0.0 0.0 0.0 24.5271 -2.914 -11.0594 -42.1911 -0.612017 6.30226 25.59 -1.45025 -3.43241 -6.17236 0.0 0.0 -0.0 0.0 -0.0 11.398 33.2263 -1.80894 -11.5487 -0.300612 -1.74384 34.4502 -26.8337 4.6576 -13.5343 0.0 0.0 0.0 0.0 0.0 
3761.47 742.755 -714.968 -9.78911 31.1697 4.9056 3.1157 0.151619 0.24608 3.11573 0.135653 0.255229 3.11633 0.0939795 0.273334 3.11625 0.135968 0.255061 -12.8519 -8.69952 1.60035 -13.0423 -17.5459 -1.08278 -0.0 0.0 -0.0 -3.21971 22.9668 -1.79931 -19.3231 -18.8166 70.4606 1.19658 -30.6563 0.327991 -8.06833 -0.353148 0.968284 -2.4534 8.25383 -12.5394 -0.0 0.0 -0.0 7.36329 16.3867 -13.8318 -8.40503 21.0033 -64.7876 0.4978 13.8527 -0.060473 0.210916 -0.00738352 0.0259248 0.939281 -8.73269 -9.73483 0.0 0.0 0.0 24.4347 -1.34743 -11.3923 -35.5253 -0.206898 5.36175 18.5026 -0.594168 -2.56734 -5.32373 0.0 0.0 -0.0 0.0 -0.0 11.7074 30.9563 -0.897532 -10.6239 -0.289558 -1.60239 39.1073 -26.1447 5.11907 -14.7027 0.0 0.0 0.0 0.0 0.0 
3764.14 740.85 -712.881 -11.8291 33.4468 6.37377 3.49767 0.17309 0.326683 3.49772 0.151952 0.337035 3.4986 0.0996354 0.356027 3.49845 0.154612 0.335823 -11.8193 -9.95569 -0.696515 -11.9983 -18.4239 -3.48673 -0.0 0.0 -0.0 -3.09523 22.9795 -1.62355 -19.6581 -20.4206 69.894 1.13377 -29.3193 0.296596 -7.3417 -0.315783 0.883196 -2.29153 9.43174 -10.8818 -0.0 0.0 -0.0 7.49895 16.8032 -14.0998 -7.99194 20.8498 -64.2095 0.535233 14.8498 -0.0697518 1.49478 -0.0502633 0.184291 0.75908 -9.55194 -8.8705 0.0 0.0 0.0 24.243 -0.184581 -11.5178 -30.9664 0.00584003 4.69482 13.6129 -0.527292 -1.92905 -3.88686 0.0 0.0 -0.0 0.0 -0.0 13.0185 29.0775 -1.0761 -9.17297 -0.267617 -1.38083 42.3677 -25.539 5.40834 -15.1028 0.0 0.0 0.0 0.0 0.0 
3763.56 742.235 -712.045 -13.0957 34.9466 7.63333 3.65689 0.219875 0.539969 3.65703 0.18507 0.552865 3.65875 0.101586 0.5741 3.65834 0.190978 0.550852 -11.1711 -10.8458 -2.28854 -11.3243 -19.0205 -5.1572 -0.0 0.0 -0.0 -2.9983 23.033 -1.47818 -19.9569 -21.5433 69.5609 1.04701 -27.4132 0.255369 -6.64279 -0.280867 0.80092 -2.19631 10.5363 -9.71267 -0.0 0.0 -0.0 7.65449 16.5698 -14.4535 -7.71899 20.74 -63.8366 0.561895 15.5545 -0.0767433 2.44018 -0.0795626 0.301493 0.632427 -10.1006 -8.25881 0.0 0.0 0.0 24.4123 0.690136 -11.336 -27.7761 0.122802 4.21924 10.5882 -0.571947 -1.51826 -2.79658 0.0 0.0 -0.0 0.0 -0.0 13.89 27.6926 -1.2014 -8.1568 -0.248912 -1.22602 43.3995 -25.3592 5.49501 -15.2554 0.0 0.0 0.0 0.0 0.0 
3763.45 743.089 -715.086 -14.2046 36.2433 8.33841 3.69594 0.277897 0.755996 3.69623 0.22923 0.772146 3.69918 0.113522 0.797412 3.69837 0.23803 0.769478 -10.7275 -11.4848 -3.40031 -10.8533 -19.4465 -6.32453 -0.0 0.0 -0.0 -2.82895 23.1012 -1.22996 -20.5565 -22.2924 69.2951 0.886012 -23.6966 0.185881 -5.95457 -0.247471 0.719497 -2.12738 11.4443 -8.81928 -0.0 0.0 -0.0 7.63758 15.8411 -14.4619 -7.07376 20.8846 -62.8114 0.676702 18.5322 -0.110404 3.3454 -0.105799 0.414144 0.578735 -9.88252 -7.82693 0.0 0.0 0.0 25.3513 1.32664 -11.1987 -25.7708 0.182685 3.91733 9.51967 0.751961 -1.36602 -2.21297 0.0 0.0 -0.0 0.0 -0.0 14.2591 26.7147 -1.20868 -7.43808 -0.234025 -1.11674 42.9418 -25.3461 5.45356 -14.5489 0.0 0.0 0.0 0.0 0.0 
3760.68 749.041 -712.28 -14.6426 37.2016 8.0865 3.62362 0.315109 0.923244 3.62406 0.255724 0.941421 3.62807 0.11371 0.968883 3.62686 0.265293 0.93877 -10.128 -12.0141 -4.10172 -10.2221 -19.8953 -7.03784 -0.0 0.0 -0.0 -2.7175 23.3058 -1.03678 -20.1014 -23.1426 70.2411 0.77893 -21.0995 0.145068 -5.43328 -0.222828 0.657563 -2.08001 12.2139 -8.13739 -0.0 0.0 -0.0 7.65972 14.8442 -14.5681 -6.77121 20.9421 -62.3751 0.762772 20.6993 -0.139304 3.95953 -0.122583 0.490798 0.572646 -9.22108 -7.53064 0.0 0.0 0.0 26.2294 1.83059 -10.9543 -24.7525 0.209036 3.76329 8.77262 1.69548 -1.25967 -1.69676 0.0 0.0 -0.0 0.0 -0.0 14.7766 26.3736 -1.45937 -6.779 -0.219169 -1.01669 42.6134 -25.3151 5.42277 -14.029 0.0 0.0 0.0 0.0 0.0 
3759.98 747.021 -713.851 -15.1786 38.2019 8.87832 3.69007 0.353751 0.833519 3.6904 0.299997 0.854338 3.69472 0.171411 0.889104 3.69375 0.309672 0.850879 -9.71375 -12.4519 -4.56159 -9.78587 -20.3469 -7.52301 -0.0 0.0 -0.0 -2.80361 23.3194 -1.15291 -19.8406 -23.7656 70.5582 0.702313 -19.1831 0.118682 -5.06999 -0.205989 0.614273 -2.05496 12.8667 -7.65776 -0.0 0.0 -0.0 7.80752 14.3923 -14.9131 -5.95295 21.2283 -61.4963 0.851091 22.8604 -0.17208 4.47515 -0.136039 0.555288 0.586738 -8.49056 -7.33729 0.0 0.0 0.0 27.9404 2.46867 -9.76106 -25.0799 0.200863 3.81287 8.24878 2.3572 -1.18514 -1.27109 0.0 0.0 -0.0 0.0 -0.0 15.0898 26.1479 -1.55895 -6.33073 -0.208408 -0.948736 42.3944 -25.294 5.4021 -13.6227 0.0 0.0 0.0 0.0 0.0 
3759.69 741.908 -711.941 -16.0468 38.9485 9.43685 3.7134 0.334205 0.808456 3.71372 0.282086 0.828083 3.71765 0.157887 0.860442 3.71673 0.291792 0.824712 -9.49931 -12.7743 -4.85069 -9.55954 -20.7229 -7.84641 -0.0 0.0 -0.0 -2.8644 23.3342 -1.23384 -19.3377 -24.3146 71.1509 0.661485 -18.143 0.105617 -4.81032 -0.194121 0.583265 -2.03015 13.2846 -7.296 -0.0 0.0 -0.0 7.82423 14.0316 -14.9681 -5.60531 21.4184 -60.7642 0.940681 24.9844 -0.208414 4.8516 -0.145496 0.602446 0.604399 -7.85486 -7.20352 0.0 0.0 0.0 29.3586 2.98068 -10.1801 -25.3759 0.19323 3.85764 7.88147 2.90609 -1.13274 -0.939147 0.0 0.0 -0.0 0.0 -0.0 14.4316 26.1306 0.307466 -6.03586 -0.201039 -0.904084 42.2399 -25.2665 5.38703 -13.324 0.0 0.0 0.0 0.0 0.0 
